<svg width="24" height="25" viewBox="0 0 24 25" fill="none" xmlns="http://www.w3.org/2000/svg">
<path d="M18.9941 3.5H18.0098C18.7129 3.76719 19.0785 4.46562 19.0785 5.50156V19.5031C19.0785 20.5391 18.7504 21.2516 18.0098 21.5047H18.9941C20.1051 21.5047 21.0004 20.6047 21.0004 19.5031V5.50156C21.0004 4.4 20.1051 3.5 18.9941 3.5Z" fill="#2770F1"/>
<path d="M16.1953 3.50937C16.1297 3.50469 16.0641 3.5 15.9984 3.5H5.00156C3.9 3.5 3 4.4 3 5.50156V19.5031C3 20.6047 3.9 21.5047 5.00156 21.5047H16.0031C16.0687 21.5047 16.1344 21.5 16.2 21.4953C17.2078 21.3969 18.0047 20.5391 18.0047 19.5031V5.50156C18 4.46562 17.2031 3.60781 16.1953 3.50937ZM9.75 12.5L7.125 11L4.5 12.5V5H9.75V12.5Z" fill="#2770F1"/>
</svg>
