<svg width="24" height="25" viewBox="0 0 24 25" fill="none" xmlns="http://www.w3.org/2000/svg">
<path d="M12.8771 5.54977C16.0571 5.94977 18.5471 8.43977 18.9471 11.6198C19.0071 12.1298 19.4371 12.4998 19.9371 12.4998C19.9771 12.4998 20.0171 12.4998 20.0571 12.4898C20.6071 12.4198 20.9971 11.9198 20.9271 11.3698C20.6814 9.38398 19.7795 7.53713 18.3646 6.12225C16.9498 4.70737 15.1029 3.80551 13.1171 3.55977C12.5671 3.49977 12.0671 3.88977 12.0071 4.43977C11.9371 4.98977 12.3271 5.48977 12.8771 5.54977ZM13.2571 7.65977C12.7271 7.51977 12.1771 7.83977 12.0371 8.37977C11.8971 8.91977 12.2171 9.45977 12.7571 9.59977C13.2745 9.73408 13.7467 10.0042 14.1247 10.3822C14.5027 10.7602 14.7728 11.2323 14.9071 11.7498C14.9737 12.0068 15.1396 12.227 15.3683 12.362C15.597 12.4969 15.8699 12.5357 16.1271 12.4698C16.6571 12.3298 16.9771 11.7798 16.8471 11.2498C16.622 10.3862 16.1707 9.59829 15.5396 8.96725C14.9086 8.33621 14.1207 7.88487 13.2571 7.65977ZM19.2271 15.7598L16.6871 15.4698C16.3884 15.4347 16.0857 15.4678 15.8017 15.5665C15.5176 15.6652 15.2596 15.827 15.0471 16.0398L13.2071 17.8798C10.3683 16.436 8.06089 14.1286 6.61711 11.2898L8.46711 9.43977C8.89711 9.00977 9.10711 8.40977 9.03711 7.79977L8.74711 5.27977C8.69042 4.79194 8.4563 4.342 8.08935 4.01561C7.72239 3.68923 7.24822 3.50918 6.75711 3.50977H5.02711C3.89711 3.50977 2.95711 4.44977 3.02711 5.57977C3.55711 14.1198 10.3871 20.9398 18.9171 21.4698C20.0471 21.5398 20.9871 20.5998 20.9871 19.4698V17.7398C20.9971 16.7298 20.2371 15.8798 19.2271 15.7598Z" fill="#2770F1"/>
</svg>
